<?xml version="1.0" encoding="utf-8"?>
<!-- Generator: Adobe Illustrator 21.1.0, SVG Export Plug-In . SVG Version: 6.00 Build 0)  -->
<svg version="1.1" id="Layer_1" xmlns="http://www.w3.org/2000/svg" xmlns:xlink="http://www.w3.org/1999/xlink" x="0px" y="0px"
	 viewBox="0 0 250 6" style="enable-background:new 0 0 250 6;" xml:space="preserve">
<style type="text/css">
	.st0{fill:#333333;}
</style>
<g>
	<path class="st0" d="M262.4,2.4c-0.4-0.1-1.2-0.2-2-0.2c-2.6,0-5.4,0.1-7.7-0.1c-0.4-0.2-0.9-0.2-1.2-0.3
		c-5.2-0.2-9.1,0.2-13.2,0.4c-2.5,0.1-4.7,0.2-7,0c0.4-0.2,1.3-0.3,1.3-0.4s-0.4-0.2-0.8-0.2c-0.3,0-0.7,0.1-1,0.1
		c-0.9,0-1.5-0.1-2.2-0.3c-0.6,0.1-1.1,0.2-1.6,0.2c-0.7,0-1.2-0.1-1.7-0.2c-0.8,0.1-1.5,0.2-2.3,0.2c-1.2,0-2.1,0-2.9,0
		c-0.9,0.1-1.8,0.2-2.8,0.2c-0.6,0.1-1.1,0.2-1.9,0.4C214.6,2,213.7,2,213,2c-0.1,0-0.1,0-0.2,0c-0.4,0.1-1,0.1-1.5,0.1
		c-1.3,0.1-2.5,0.2-3.9,0.2c-1,0.1-2.2,0-2.6-0.2h0.1C204.6,2,204.4,2,204.2,2c-2.3-0.1-4.6-0.2-6.8-0.2c-1.3,0-2.5,0.1-3.6,0.2
		c-0.1,0-0.2,0.1-0.3,0.1c-1.3,0.3-3.5,0.3-6.8,0.2c-0.1,0,0-0.1,0-0.1c-0.9,0-1.8-0.1-2.6-0.2c-1.7,0-3.3,0.1-4.9,0.1
		c-0.1,0.1-0.3,0.1-0.4,0.2c-3.1,0-3.1,0-5.9-0.1l0,0c-2.3,0-4.2-0.2-5.6-0.3c-0.4,0.2-1.1,0.2-2,0.4c-1.5,0-3.1,0-4.6,0
		c-1.7,0-3.3,0.1-6.2,0.2c0.3,0,0.5-0.1,0.8-0.1c-1.3,0-2.6,0-4.1-0.1c-0.9,0.1-2.1,0.2-3.9,0C147,2,147,2,147,1.9
		c-2,0-4-0.1-5.7-0.2c-0.8,0.1-1.5,0.1-2.1,0.2c-1,0.2-1.3,0.3-2.1,0.5c-6.6-1.1-9.8-0.3-13.2-0.3c-0.8,0,1.9,0,1.1,0
		c-0.6,0-1.2,0.1-1.7,0c-1,0-2,0-3,0c0,0,0.1,0,0.1-0.1c-1.5-0.1-3.1-0.1-4.7-0.2c-0.4,0-0.9,0-1.3-0.1c-1.3-0.1-1.2-0.1,0.2,0
		c-0.7-0.1-1.9-0.1-2.9,0c-0.7,0.1-1.1,0.2-1.6,0.3c-4.5,0.1-8.8,0.1-13.1,0c-0.7,0-1.4,0-2.2,0c-0.7,0-1.2,0-1.9,0
		C92.9,2,92.8,2,92.7,2c-1.4-0.1-2.8-0.2-3.8-0.5c-0.8-0.1-1.5-0.1-2.2-0.2c-0.7,0.1-1.3,0.1-2,0.1c-0.5,0.2-1.2,0.3-2,0.4
		c-3.3-0.1-6-0.1-8.7,0.2c-0.7,0.1-1.7,0.1-2.5,0.1c-0.1,0-0.2,0-0.4,0c-1.2,0-2.1-0.2-2.9-0.6c-0.2,0-0.5,0-0.8-0.1
		c-1.1,0-2.3-0.1-3.4-0.2c-1.9,0.2-2.5,0.5-3.3,0.7c-4.4,0.2-10.7,0.2-14,0c-1.9-0.1-2.9-0.2-3.1-0.4c-1.3-0.1-2.5-0.2-3.7-0.2h-0.1
		c-2.4,0.3-4,0.5-5.7,0.6c-0.1,0-0.2,0-0.4,0c-0.7,0.2-1.4,0.3-2.2,0.3s-1.5-0.2-2.1-0.3c-1.1,0.2-2.3,0-3.3-0.3c-0.1,0-0.2,0-0.3,0
		c-0.3,0-0.7,0.1-1,0.1c-0.1,0-0.1,0.1-0.2,0.1c-0.9,0.3-1.5,0.4-4.4,0.4c-0.1,0-0.2,0-0.2,0c-1.6,0.1-3.4,0.1-5.1-0.2
		c-0.6,0.2-1.2,0.2-1.8,0.1c-0.2,0.1-0.6,0.1-1,0.2c-0.9,0-1.8,0-2.6,0c-3.3,0-6.7-0.1-10-0.1c-1.3,0-2.6,0-3.8,0
		C-6.3,2.4-8,2.5-9.6,2.6c-2.3,0.1-3.1,0.2-2.8,0.6c0.2,0.2,0.9,0.3,1.3,0.4c3.3,0.1,6.3,0.2,9.2,0.2c1,0,2.3,0.1,3.2,0
		c5.6-0.3,11.1-0.3,16.4,0c0.7-0.1,1.1-0.2,1.6-0.2c2-0.2,3.5-0.2,4.5-0.1c0.9-0.2,1.6-0.3,2.6-0.3c0.2,0,0.6,0,0.8,0.1
		c0.2,0,0.5-0.1,0.9-0.1c0.7,0,1.4,0.1,2,0.3h0.1c3.4-0.1,6.9-0.2,10.4-0.2c2.6,0,4,0.2,4.2,0.4c0.7,0,1.3,0.1,2.1,0.1
		c0.1,0,0.3,0,0.4,0c0.2-0.1,0.5-0.2,0.9-0.2c0.4-0.1,0.8-0.2,1.2-0.2c-0.1-0.1-0.2-0.1-0.3-0.2c4.6-0.3,9.5-0.3,14.3-0.2
		c2,0.1,3.4,0.2,3.4,0.6v0.1c1.4,0,2.9,0,4.3,0c0.2,0,0.5,0,0.8-0.1C72.7,3.2,73.8,3,75.1,3c0.4,0,0.9,0,1.3,0.1c2,0,3.9-0.1,5.9,0
		c1.7,0,2.9,0.1,3.6,0.1c2.2-0.5,4.5-0.2,6.6,0.4c0.2-0.1,0.6-0.2,0.8-0.2c-0.3,0-0.7-0.1-1-0.1c8.7-0.2,16.8,0.4,25-0.3
		C117.6,3,118,3,118,3l0,0c0.4,0,0.8,0.1,1.1,0.2c0.5,0.1,1,0.2,1.4,0.2c0.6,0,1,0.2,1.4,0.2c0.5,0,1,0.1,1.4,0.2c0.1,0,0.1,0,0.2,0
		c0.2,0,0.6,0,0.8,0c0.1-0.1,0.3-0.1,0.6-0.2c-0.4-0.3-1-0.6-1.4-0.9c6.6,0.2,15.3,0,17.2,0.2V3c0.9,0,1.8,0.1,2.8,0.2
		c0.9,0.1,1.8,0.2,2.6,0.2c1,0,2.1-0.1,3.1-0.1c0.8,0,1.5,0,2.3,0c0.1-0.1,0.3-0.2,0.7-0.2c2.4-0.1,3.9,0,5,0.2c1.3,0,2.8,0,4.1,0
		c-0.1,0,0.3,0,1.1-0.1c0.4,0,0.8-0.1,1.2-0.1c2-0.2,4.7-0.3,6-0.3c4.2-0.1,8,0.2,12.1,0.2c0.6,0,1,0,1.5,0c0.1-0.1,0.3-0.1,0.4-0.2
		c0.7-0.1,1.1-0.1,1.5-0.1c4.2-0.1,5.6-0.1,6.8,0.2c1.2,0,2.5,0.1,3.7,0.2c2.1-0.3,4.8-0.6,8.1-0.4c1.1,0,2.2,0.1,3.2,0.1
		c0.2,0,0.3,0,0.6,0c3.2,0.1,6.4,0.1,9.7,0.1c0.1,0,0.2-0.1,0.3-0.1c0.6-0.2,1.1-0.2,1.7-0.3c-0.1,0-0.2,0-0.3,0c0.1,0,0.3,0,0.4,0
		c1.1-0.1,2.2-0.1,3.3,0c3.9,0,7.5,0,10.8,0.3c0.8,0.1,1.4,0.2,2.2,0.2c0.1,0,0.3,0,0.4,0c0.4,0,1,0,1.4,0.1
		c2.5-0.1,4.9-0.2,7.4-0.2c0.2-0.1,0.4-0.1,0.7-0.2c3.4,0.1,6.8,0.2,9.3-0.2c0.3-0.1,1.6,0,2.5,0c1.1,0,2.2,0,3.3,0
		C261.8,2.7,262.8,2.5,262.4,2.4z"/>
</g>
</svg>
