<?xml version="1.0" encoding="utf-8"?>
<!-- Generator: Adobe Illustrator 21.1.0, SVG Export Plug-In . SVG Version: 6.00 Build 0)  -->
<svg version="1.1" id="Layer_1" xmlns="http://www.w3.org/2000/svg" xmlns:xlink="http://www.w3.org/1999/xlink" x="0px" y="0px"
	 viewBox="0 0 250 6" style="enable-background:new 0 0 250 6;" xml:space="preserve">
<style type="text/css">
	.st0{fill:#333333;}
</style>
<g>
	<path class="st0" d="M249.9,2.3c-0.4-0.1-1.1-0.2-1.8-0.2c-2.4,0-4.9,0.1-7-0.1c-0.4-0.2-0.8-0.3-1.1-0.4c-4.7-0.2-8.3,0.2-12,0.5
		c-2.3,0.1-4.3,0.2-6.4,0c0.4-0.2,1.2-0.4,1.2-0.5c0-0.1-0.4-0.2-0.7-0.3c-0.3,0-0.6,0.1-0.9,0.1c-0.8,0-1.4-0.1-2-0.4
		c-0.5,0.1-1,0.2-1.5,0.2c-0.6,0-1.1-0.1-1.5-0.2c-0.7,0.1-1.4,0.2-2.1,0.2c-1.1,0-1.9,0-2.6,0c-0.8,0.1-1.6,0.2-2.5,0.3
		c-0.5,0.1-1,0.3-1.7,0.5c-0.8-0.1-1.7-0.1-2.3-0.2c-0.1,0-0.1,0-0.2,0c-0.4,0.1-0.9,0.1-1.4,0.1c-1.2,0.1-2.3,0.2-3.5,0.3
		c-0.9,0.1-2,0-2.4-0.2c0,0,0.1,0,0.1,0c-0.2-0.1-0.4-0.1-0.6-0.2c-2.1-0.1-4.2-0.2-6.2-0.3c-1.2,0-2.3,0.1-3.3,0.2
		c-0.1,0-0.2,0.1-0.3,0.1c-1.2,0.4-3.2,0.4-6.2,0.2c-0.1,0,0-0.1,0-0.1c-0.8,0-1.6-0.1-2.4-0.2c-1.5,0-3,0.1-4.5,0.1
		c-0.1,0.1-0.3,0.1-0.4,0.2c-2.8,0-2.8,0-5.4-0.1c0,0,0,0,0,0c-2.1,0-3.8-0.2-5.1-0.4c-0.4,0.2-1,0.3-1.8,0.5c-1.4,0-2.8,0-4.2,0
		c-1.5,0-3,0.1-5.6,0.2c0.3,0,0.5-0.1,0.7-0.1c-1.2,0-2.4,0-3.7-0.1c-0.8,0.1-1.9,0.2-3.5,0c-0.1-0.1-0.1-0.2-0.1-0.3
		c-1.8,0-3.6-0.1-5.2-0.2c-0.7,0.1-1.4,0.1-1.9,0.3c-0.9,0.2-1.2,0.4-1.9,0.6C130,1,127.1,2,124,2c-0.7,0,1.7,0,1,0
		c-0.5,0-1.1,0.1-1.5,0c-0.9,0-1.8,0-2.7,0c0,0,0.1,0,0.1-0.1c-1.4-0.1-2.8-0.1-4.3-0.2c-0.4,0-0.8,0-1.2-0.1
		c-1.2-0.1-1.1-0.1,0.2,0c-0.6-0.1-1.7-0.1-2.6,0c-0.6,0.1-1,0.3-1.5,0.4c-4.1,0.1-8,0.1-11.9,0c-0.6,0-1.3,0-2,0
		c-0.6,0-1.1,0-1.7,0c-0.1-0.1-0.2-0.1-0.3-0.1c-1.3-0.1-2.5-0.3-3.5-0.6c-0.7-0.1-1.4-0.1-2-0.2c-0.6,0.1-1.2,0.1-1.8,0.1
		c-0.5,0.2-1.1,0.4-1.8,0.5c-3-0.1-5.5-0.1-7.9,0.3c-0.6,0.1-1.5,0.1-2.3,0.1c-0.1,0-0.2,0-0.4,0c-1.1,0-1.9-0.3-2.6-0.7
		c-0.2,0-0.5,0-0.7-0.1c-1,0-2.1-0.1-3.1-0.2c-1.7,0.2-2.3,0.6-3,0.9C62.5,2.2,56.8,2.2,53.8,2c-1.7-0.1-2.6-0.3-2.8-0.5
		c-1.2-0.1-2.3-0.2-3.4-0.3c0,0-0.1,0-0.1,0c-2.2,0.4-3.6,0.6-5.2,0.8c-0.1,0-0.2,0-0.4,0c-0.6,0.3-1.3,0.4-2,0.4
		c-0.7,0-1.4-0.2-1.9-0.4c-1,0.2-2.1,0-3-0.4c-0.1,0-0.2,0-0.3,0c-0.3,0-0.6,0.1-0.9,0.1c-0.1,0-0.1,0.1-0.2,0.1
		c-0.8,0.4-1.4,0.5-4,0.5c-0.1,0-0.2,0-0.2,0c-1.5,0.1-3.1,0.1-4.6-0.3c-0.5,0.2-1.1,0.2-1.6,0.1c-0.2,0.1-0.5,0.1-0.9,0.2
		c-0.8,0-1.6,0-2.4,0c-3,0-6.1-0.1-9.1-0.1c-1.2,0-2.4,0-3.5,0C5.6,2.4,4.1,2.5,2.6,2.6C0.5,2.7-0.2,2.9,0.1,3.3
		c0.2,0.2,0.8,0.4,1.2,0.5c3,0.1,5.7,0.2,8.4,0.3c0.9,0,2.1,0.1,2.9,0c5.1-0.4,10.1-0.4,14.9,0c0.6-0.1,1-0.2,1.5-0.2
		c1.8-0.2,3.2-0.2,4.1-0.1c0.8-0.2,1.5-0.4,2.4-0.4c0.2,0,0.5,0,0.7,0.1c0.2,0,0.5-0.1,0.8-0.1c0.6,0,1.3,0.1,1.8,0.4
		c0,0,0.1,0,0.1,0c3.1-0.1,6.3-0.2,9.5-0.3C50.8,3.5,52,3.7,52.2,4c0.6,0,1.2,0.1,1.9,0.1c0.1,0,0.3,0,0.4,0C54.7,4,55,3.9,55.3,3.8
		c0.4-0.1,0.7-0.2,1.1-0.2c-0.1-0.1-0.2-0.1-0.3-0.2C60.3,3,64.7,3,69.1,3.2c1.8,0.1,3.1,0.3,3.1,0.7c0,0,0,0.1,0,0.1
		C73.5,4,74.8,4,76.1,4c0.2,0,0.5,0,0.7-0.1c0.7-0.5,1.7-0.8,2.8-0.8c0.4,0,0.8,0,1.2,0.1c1.8,0,3.5-0.1,5.4,0
		c1.5,0,2.6,0.1,3.3,0.1c2-0.6,4.1-0.3,6,0.5c0.2-0.1,0.5-0.2,0.7-0.3c-0.3,0-0.6-0.1-0.9-0.1c7.9-0.3,15.3,0.5,22.7-0.4
		c0.3,0.1,0.6,0.1,0.6,0.1c0,0,0,0,0,0c0.4,0,0.7,0.1,1,0.2c0.5,0.1,0.9,0.2,1.3,0.3c0.5,0,0.9,0.2,1.3,0.3c0.5,0,0.9,0.1,1.3,0.2
		c0.1,0,0.1,0,0.2,0c0.2,0,0.5,0,0.7,0c0.1-0.1,0.3-0.1,0.5-0.2c-0.4-0.4-0.9-0.8-1.3-1.1c6,0.2,13.9,0,15.6,0.2c0,0,0,0.1,0,0.1
		c0.8,0,1.6,0.1,2.5,0.2c0.8,0.1,1.6,0.2,2.4,0.3c0.9,0,1.9-0.1,2.8-0.1c0.7,0,1.4,0,2.1,0c0.1-0.1,0.3-0.2,0.6-0.2
		c2.2-0.1,3.5,0,4.5,0.2c1.2,0,2.5,0,3.7,0c-0.1,0,0.3,0,1-0.1c0.4,0,0.7-0.1,1.1-0.1c1.8-0.2,4.3-0.4,5.5-0.4
		c3.8-0.1,7.3,0.2,11,0.3c0.5,0,0.9,0,1.4,0c0.1-0.1,0.3-0.1,0.4-0.2c0.6-0.1,1-0.1,1.4-0.1c3.8-0.1,5.1-0.1,6.2,0.3
		c1.1,0,2.3,0.1,3.4,0.3c1.9-0.4,4.4-0.7,7.4-0.5c1,0,2,0.1,2.9,0.1c0.2,0,0.3,0,0.5,0c2.9,0.1,5.8,0.1,8.8,0.1
		c0.1,0,0.2-0.1,0.3-0.1c0.5-0.2,1-0.3,1.5-0.4c-0.1,0-0.2,0-0.3,0c0.1,0,0.3,0,0.4,0c1-0.1,2-0.1,3,0c3.5,0,6.8,0,9.8,0.4
		c0.7,0.1,1.3,0.2,2,0.2c0.1,0,0.3,0,0.4,0c0.4,0,0.9,0,1.3,0.1c2.3-0.1,4.5-0.2,6.7-0.2c0.2-0.1,0.4-0.1,0.6-0.2
		c3.1,0.1,6.2,0.3,8.5-0.3c0.3-0.1,1.5,0,2.3,0c1,0,2,0,3,0C249.4,2.7,250.3,2.5,249.9,2.3z"/>
</g>
</svg>
